<svg width="832" height="582" viewBox="0 0 832 582" fill="none" xmlns="http://www.w3.org/2000/svg">
<g id="undraw_dashboard_nklg 1">
<path id="Vector" opacity="0.1" d="M815.905 132.517C807.402 117.473 796.252 103.799 782.897 92.0362L325.032 88.5634L702.009 47.808C677.343 40.293 651.533 36.352 625.524 36.1291C589.233 13.5691 542.589 0.0331726 491.712 0.0331726C446.062 0.0331726 403.851 10.9545 369.437 29.4851C340.192 17.8867 306.853 11.3098 271.431 11.3098C169.699 11.3098 84.9302 65.5476 65.912 137.478L815.905 132.517Z" fill="#6C63FF"/>
<path id="Vector_2" opacity="0.1" d="M832 192.842C831.968 173.133 827.093 153.68 817.731 135.91L24.1943 200.029C16.1398 211.21 9.87954 223.38 5.60312 236.172L251.338 264.371L0 284.926C7.56163 366.356 98.2423 430.651 209.016 430.651C264.775 430.651 315.438 414.359 352.982 387.79C390.642 414.862 441.792 431.509 498.154 431.509C581.774 431.509 653.952 394.856 687.563 341.866C754.992 325.386 807.371 284.021 825.3 232.27L514.537 195.169H832C832 194.391 832 193.62 832 192.842Z" fill="#6C63FF"/>
<path id="Vector_3" opacity="0.1" d="M368.127 581.993C486.044 581.993 581.634 578.109 581.634 573.318C581.634 568.527 486.044 564.643 368.127 564.643C250.21 564.643 154.619 568.527 154.619 573.318C154.619 578.109 250.21 581.993 368.127 581.993Z" fill="#6C63FF"/>
<path id="Vector_4" d="M494.849 558.059V563.302H324.583V559.044C334.967 555.541 343.976 549.312 350.469 541.144C356.963 532.977 360.649 523.239 361.062 513.163C361.474 503.087 358.594 493.126 352.786 484.541C346.977 475.956 338.503 469.133 328.434 464.936H493.693C483.85 469.04 475.525 475.655 469.729 483.98C463.932 492.305 460.911 501.983 461.034 511.84C461.156 521.696 464.416 531.309 470.418 539.513C476.42 547.717 484.906 554.159 494.849 558.059V558.059Z" fill="#C8CAD7"/>
<path id="Vector_5" opacity="0.1" d="M493.693 464.936C486.098 468.111 479.379 472.793 474.028 478.638C468.678 484.484 464.831 491.345 462.769 498.719H359.365C357.302 491.345 353.455 484.485 348.104 478.639C342.754 472.794 336.035 468.112 328.441 464.936H493.693Z" fill="black"/>
<path id="Vector_6" d="M129.586 438.226V467.658C129.586 483.909 142.648 497.083 158.765 497.083H659.747C675.864 497.083 688.925 483.909 688.925 467.658V438.226H129.586Z" fill="#C8CAD7"/>
<path id="Vector_7" opacity="0.1" d="M494.849 558.059V563.302H324.583V559.044C329.251 557.463 333.666 555.321 337.711 552.675H484.408C487.667 554.804 491.168 556.609 494.849 558.059V558.059Z" fill="black"/>
<path id="Vector_8" d="M544.121 554.311H275.311C271.448 554.311 268.316 557.163 268.316 560.68V563.476C268.316 566.994 271.448 569.845 275.311 569.845H544.121C547.984 569.845 551.115 566.994 551.115 563.476V560.68C551.115 557.163 547.984 554.311 544.121 554.311Z" fill="#C8CAD7"/>
<path id="Vector_9" d="M688.925 115.73C688.916 108.689 685.837 101.941 680.366 96.9664C674.894 91.992 667.478 89.1989 659.747 89.2007H158.787C151.051 89.1935 143.629 91.9843 138.153 96.9593C132.677 101.934 129.596 108.686 129.586 115.73V443.952H688.925V115.73Z" fill="#474157"/>
<path id="Vector_10" d="M673.828 121.08V403.11C673.829 404.828 673.458 406.529 672.737 408.116C672.015 409.704 670.957 411.146 669.623 412.361C668.289 413.576 666.705 414.539 664.961 415.196C663.218 415.853 661.35 416.191 659.463 416.19H159.365C157.478 416.191 155.61 415.853 153.867 415.196C152.123 414.539 150.539 413.576 149.205 412.361C147.871 411.146 146.813 409.704 146.091 408.116C145.37 406.529 144.999 404.828 145 403.11V121.08C145 117.611 146.513 114.284 149.207 111.831C151.901 109.378 155.555 108 159.365 108H659.426C661.316 107.996 663.188 108.331 664.935 108.986C666.682 109.641 668.27 110.604 669.608 111.819C670.945 113.034 672.007 114.478 672.731 116.067C673.455 117.656 673.828 119.36 673.828 121.08V121.08Z" fill="#4C4C78"/>
<path id="Vector_11" d="M409.263 107.966C412.984 107.966 416 105.22 416 101.832C416 98.4436 412.984 95.6971 409.263 95.6971C405.542 95.6971 402.526 98.4436 402.526 101.832C402.526 105.22 405.542 107.966 409.263 107.966Z" fill="white"/>
<path id="Vector_12" d="M409.263 484.01C418.437 484.01 425.874 477.238 425.874 468.885C425.874 460.532 418.437 453.76 409.263 453.76C400.089 453.76 392.652 460.532 392.652 468.885C392.652 477.238 400.089 484.01 409.263 484.01Z" fill="white"/>
<path id="Vector_13" d="M256.617 121.046V422.693H159.236C157.349 422.693 155.481 422.356 153.738 421.699C151.994 421.042 150.41 420.078 149.076 418.863C147.742 417.649 146.684 416.206 145.963 414.619C145.241 413.032 144.87 411.33 144.871 409.612V127.583L145.394 125.806L146.793 121.046H256.617Z" fill="white"/>
<path id="Vector_14" d="M269.112 125.806V152.959H144.871V127.583L145.394 125.806H269.112Z" fill="#4C4C78"/>
<path id="Vector_15" d="M673.699 127.583H144.871C144.871 125.865 145.243 124.165 145.965 122.578C146.687 120.992 147.745 119.55 149.079 118.336C150.413 117.122 151.997 116.159 153.739 115.503C155.482 114.846 157.35 114.509 159.236 114.509H659.297C661.187 114.504 663.058 114.838 664.805 115.493C666.552 116.148 668.14 117.11 669.478 118.324C670.816 119.539 671.878 120.982 672.602 122.57C673.326 124.159 673.699 125.863 673.699 127.583V127.583Z" fill="#C8CAD7"/>
<path id="Vector_16" d="M159.236 124.318C161.22 124.318 162.829 122.853 162.829 121.046C162.829 119.239 161.22 117.774 159.236 117.774C157.252 117.774 155.643 119.239 155.643 121.046C155.643 122.853 157.252 124.318 159.236 124.318Z" fill="#EDEDF4"/>
<path id="Vector_17" d="M170.008 124.318C171.992 124.318 173.601 122.853 173.601 121.046C173.601 119.239 171.992 117.774 170.008 117.774C168.023 117.774 166.415 119.239 166.415 121.046C166.415 122.853 168.023 124.318 170.008 124.318Z" fill="#EDEDF4"/>
<path id="Vector_18" d="M180.78 124.318C182.764 124.318 184.373 122.853 184.373 121.046C184.373 119.239 182.764 117.774 180.78 117.774C178.795 117.774 177.187 119.239 177.187 121.046C177.187 122.853 178.795 124.318 180.78 124.318Z" fill="#EDEDF4"/>
<path id="Vector_19" d="M238.048 137.76H163.44V144.015H238.048V137.76Z" fill="#6C63FF"/>
<path id="Vector_20" opacity="0.5" d="M238.048 168.264H163.44V174.52H238.048V168.264Z" fill="#6C63FF"/>
<path id="Vector_21" opacity="0.5" d="M238.048 189.832H163.44V196.087H238.048V189.832Z" fill="#6C63FF"/>
<path id="Vector_22" opacity="0.5" d="M238.048 211.4H163.44V217.655H238.048V211.4Z" fill="#6C63FF"/>
<path id="Vector_23" opacity="0.5" d="M238.048 232.961H163.44V239.216H238.048V232.961Z" fill="#6C63FF"/>
<path id="Vector_24" opacity="0.5" d="M238.048 254.529H163.44V260.784H238.048V254.529Z" fill="#6C63FF"/>
<path id="Vector_25" opacity="0.5" d="M238.048 276.096H163.44V282.351H238.048V276.096Z" fill="#6C63FF"/>
<path id="Vector_26" opacity="0.5" d="M238.048 297.657H163.44V303.912H238.048V297.657Z" fill="#6C63FF"/>
<path id="Vector_27" opacity="0.5" d="M648.297 160.762H317.699V161.768H648.297V160.762Z" fill="#DCE0ED"/>
<path id="Vector_28" opacity="0.5" d="M648.297 184.113H317.699V185.119H648.297V184.113Z" fill="#DCE0ED"/>
<path id="Vector_29" opacity="0.5" d="M648.297 207.471H317.699V208.477H648.297V207.471Z" fill="#DCE0ED"/>
<path id="Vector_30" opacity="0.5" d="M648.297 230.822H317.699V231.828H648.297V230.822Z" fill="#DCE0ED"/>
<path id="Vector_31" opacity="0.5" d="M648.297 254.173H317.699V255.179H648.297V254.173Z" fill="#DCE0ED"/>
<g id="Graph">
<path id="Vector_32" d="M374.793 225.998C344.938 225.998 317.339 209.69 317 209.479L317.819 208.386C318.246 208.643 360.714 233.737 396.801 221.163C409.973 216.586 419.325 209.453 428.412 202.563C437.874 195.364 446.813 188.561 458.99 185.61C473.003 182.231 488.233 185.294 499.834 193.803C509.747 201.081 529.498 212.772 550.362 209.275C560.998 207.497 569.966 200.555 579.458 193.211C597.631 179.116 616.482 164.567 649 185.459L648.137 186.526C616.534 166.246 598.162 180.459 580.402 194.205C570.755 201.674 561.639 208.695 550.613 210.572C529.151 214.162 508.987 202.247 498.875 194.824C487.643 186.578 472.87 183.628 459.358 186.888C447.492 189.759 438.708 196.464 429.348 203.564C420.195 210.526 410.726 217.732 397.339 222.395C390.141 224.839 382.494 226.061 374.793 225.998Z" fill="#6C63FF"/>
<path id="Vector_33" opacity="0.5" d="M648.011 255.177H317V209.252L347.357 222.875L378.774 226.75L406.341 219.181L439.599 195.696L456.327 186.9L468.557 184.755L480.256 185.325L499.503 193.98L525.655 209.152L546.183 211.559L562.462 206.45L596.957 180.719L614.569 175L632.998 177.595L648.011 185.486V255.177Z" fill="#6C63FF"/>
<path id="Vector_34" d="M476.78 192.078C481.306 192.078 484.975 188.737 484.975 184.616C484.975 180.495 481.306 177.154 476.78 177.154C472.254 177.154 468.585 180.495 468.585 184.616C468.585 188.737 472.254 192.078 476.78 192.078Z" fill="#6C63FF"/>
</g>
<path id="Vector_35" d="M271.409 346.773C260.21 340.9 255.947 339.445 255.947 339.439L255.719 339.291C254.495 338.437 253.524 337.32 252.891 336.039C252.891 335.805 252.891 335.57 252.891 335.369V335.436C253.075 332.325 255.498 329.503 257.802 327.036C259.766 324.93 261.729 322.828 263.692 320.727C264.369 320.089 264.887 319.325 265.209 318.488C265.329 318.049 265.384 317.598 265.371 317.147C265.371 316.959 265.371 316.778 265.371 316.597C265.371 315.028 265.29 313.459 265.231 311.904C265.172 310.53 264.79 308.807 263.28 308.552C262.5 308.404 261.469 308.659 261.071 308.049C260.927 307.8 260.89 307.51 260.968 307.238C260.968 307.238 260.968 307.278 260.968 307.298C260.965 307.274 260.965 307.249 260.968 307.224C261.259 306.167 261.446 305.087 261.528 304C261.554 303.448 261.472 302.896 261.285 302.37C260.409 300.098 257.412 299.166 254.761 298.737C252.111 298.308 249.136 297.939 247.472 296.055C247.016 295.427 246.524 294.82 246 294.238C245.229 293.62 244.291 293.198 243.283 293.018C239.994 292.276 236.528 292.552 233.431 293.802C232.15 294.325 230.862 295.023 229.455 294.949C228.049 294.875 226.746 293.943 225.303 293.722C222.976 293.36 220.745 294.922 219.596 296.766C218.915 297.86 218.553 299.095 218.544 300.353C218.544 300.42 218.544 300.493 218.544 300.56C218.515 301.913 219.058 303.223 220.06 304.221C221.062 305.173 222.556 305.823 223.005 307.07C223.175 307.58 223.138 308.129 223.285 308.639C223.285 308.706 223.329 308.766 223.352 308.833L223.271 308.921C220.879 311.723 219.583 315.173 219.589 318.722C219.612 322.168 220.837 325.519 223.087 328.29C225.336 331.062 228.495 333.111 232.106 334.142C232.106 334.296 232.106 334.457 232.106 334.625C232.156 335.631 231.964 336.635 231.545 337.567C231.125 338.499 230.487 339.337 229.676 340.022L213.787 345.828C213.787 345.828 204.215 344.795 200.77 357.527C200.217 359.64 200.019 361.816 200.181 363.983C200.306 365.907 200.011 369.286 197.56 373.657C193.635 380.657 194.526 396.713 202.552 398.302C210.128 399.804 213.095 399.181 213.404 399.107V399.388C213.279 402.405 212.079 428.391 207.713 431.569C206.498 432.434 206.726 433.024 207.713 433.419C207.713 433.419 207.713 433.587 207.713 433.889C207.58 435.793 206.903 443.027 203.98 447.15C200.622 451.903 201.005 479.391 201.005 479.391L198.693 495.608C198.693 495.608 200.114 505.625 198.693 507.374C197.42 508.937 195.748 545.998 195.365 554.03H195.218C194.519 554.068 193.841 554.262 193.243 554.594C192.645 554.925 192.145 555.386 191.787 555.934C189.887 558.709 183.335 563.825 183.335 563.825C181.913 565.668 176.642 567.432 173.859 568.263C173.486 568.372 173.126 568.513 172.784 568.685C171.741 569.202 170.904 570.004 170.391 570.978C170.21 571.265 170.094 571.582 170.051 571.91C170.008 572.239 170.038 572.571 170.14 572.889C170.877 574.478 185.654 575.571 189.394 574.002C192.339 572.755 204.002 571.106 208.847 570.462C209.726 570.361 210.543 569.997 211.17 569.426C211.796 568.856 212.197 568.111 212.307 567.311C212.354 567.035 212.339 566.753 212.263 566.482C212.187 566.211 212.052 565.957 211.865 565.735V565.735C210.938 564.689 210.459 561.833 210.246 559.97C210.639 559.823 211.006 559.624 211.335 559.38C210.938 553.601 211.848 547.81 214.008 542.364C217.572 533.783 218.647 517.88 217.756 507.542C217.756 507.542 228.631 464.923 237.194 460.947C237.326 461.095 241.479 465.949 242.009 480.98C242.539 496.245 248.599 506.262 248.599 506.262C248.599 506.262 245.926 532.18 248.599 541.881L245.087 557.161C244.94 557.051 244.8 556.935 244.667 556.812C244.667 556.812 244.77 557.241 244.917 557.918L244.844 558.24L244.991 558.273C245.388 560.184 245.977 563.516 245.727 565.474C245.587 566.594 245.249 568.115 244.991 569.617C244.623 571.97 244.52 574.257 245.882 574.753C248.091 575.571 261.219 576.69 263.45 574.082C263.949 573.548 264.275 572.896 264.39 572.202C264.504 571.508 264.403 570.798 264.097 570.154C263.936 569.794 263.717 569.457 263.45 569.155C263.45 569.155 259.967 563.972 260.954 560.318C261.044 559.962 261.053 559.593 260.981 559.233C260.909 558.873 260.757 558.531 260.534 558.227C261.044 552.442 262.066 546.705 263.589 541.07C265.798 533.421 270.525 516.647 267.065 505.611C266.932 505.182 266.785 504.753 266.623 504.337C264.624 498.315 263.956 491.992 264.657 485.733C263.369 480.391 263.369 474.858 264.657 469.515C266.778 460.619 268.272 451.903 268.272 451.903C268.272 451.903 269.45 440.137 268.419 432.923L268.353 432.461L268.913 432.347C268.913 432.347 265.887 420.105 264.812 412.314C264.561 410.471 264.23 408.144 263.869 405.657C264.856 405.502 265.829 405.278 266.777 404.986C276.408 401.963 279.434 374.609 279.434 374.609V365.934C279.434 365.934 282.644 352.68 271.409 346.773ZM199.673 557.958L199.201 557.73L199.673 557.958Z" fill="url(#paint0_linear)"/>
<path id="Vector_36" d="M265.599 504.599C269.774 515.534 264.863 533.28 262.654 541.204C261.167 546.935 260.182 552.763 259.709 558.636C254.628 559.416 249.43 559.307 244.394 558.314L248.076 541.995C245.469 532.328 248.076 506.496 248.076 506.496C248.076 506.496 242.186 496.507 241.641 481.295C241.125 466.324 237.076 461.484 236.943 461.329C228.528 465.312 217.94 507.77 217.94 507.77C218.809 518.068 217.763 533.917 214.258 542.478C212.146 547.913 211.257 553.679 211.645 559.433C210.43 560.365 208.736 560.526 206.91 560.258C201.94 559.527 195.984 555.625 195.984 555.625C195.984 555.625 197.898 509.366 199.29 507.609C200.681 505.853 199.29 495.883 199.29 495.883L201.55 479.719C201.55 479.719 201.204 452.305 204.495 447.539C207.352 443.429 208.007 436.215 208.14 434.324C208.14 434.023 208.14 433.855 208.14 433.855L213.176 428.364C213.176 428.364 261.911 425.012 265.563 428.364C266.461 429.182 267.035 431.046 267.344 433.379C268.346 440.566 267.197 452.292 267.197 452.292C267.197 452.292 265.725 461.008 263.648 469.877C262.392 475.205 262.392 480.714 263.648 486.041C262.968 492.284 263.631 498.587 265.599 504.599V504.599Z" fill="#65617D"/>
<path id="Vector_37" d="M262.551 574.089C260.379 576.704 247.59 575.597 245.411 574.759C244.078 574.257 244.181 571.984 244.542 569.637C244.77 568.142 245.101 566.62 245.234 565.514C245.587 562.658 244.196 556.872 244.196 556.872C244.196 556.872 247.067 559.648 247.759 556.872C247.919 556.343 248.235 555.863 248.672 555.485C249.109 555.107 249.652 554.845 250.241 554.727C251.732 554.316 253.337 554.407 254.761 554.982C257.022 555.873 260.791 557.777 260.114 560.345C259.157 563.986 262.551 569.148 262.551 569.148C262.814 569.451 263.028 569.788 263.184 570.147C263.49 570.793 263.592 571.503 263.48 572.199C263.369 572.895 263.047 573.55 262.551 574.089V574.089Z" fill="#A27772"/>
<path id="Vector_38" opacity="0.1" d="M262.551 574.089C260.379 576.704 247.59 575.597 245.411 574.759C244.078 574.257 244.181 571.984 244.542 569.637C245.911 570.221 248.223 570.71 252.14 570.381C253.05 570.301 253.965 570.274 254.879 570.301C257.648 570.419 260.423 570.37 263.184 570.154C263.488 570.799 263.59 571.508 263.478 572.203C263.366 572.897 263.046 573.55 262.551 574.089V574.089Z" fill="black"/>
<path id="Vector_39" opacity="0.1" d="M217.94 507.77C218.809 518.068 217.763 533.917 214.258 542.478C212.146 547.913 211.257 553.679 211.645 559.433C210.43 560.365 208.736 560.526 206.91 560.258C207.963 553.554 212.432 524.772 215.304 502.024C218.566 476.112 233.836 458.286 233.836 458.286L236.884 461.336C228.528 465.312 217.94 507.77 217.94 507.77Z" fill="black"/>
<path id="Vector_40" d="M257.331 341.215L255.203 350.722L244.799 366.651L231.966 361.657C231.966 361.657 214.516 345.017 225.479 342.643C226.794 342.388 228.035 341.885 229.124 341.168C231.274 339.687 231.951 337.541 231.966 335.436C231.879 333.078 231.273 330.759 230.184 328.618L252.633 322.202C251.705 324.887 251.163 327.67 251.021 330.482C250.852 336.046 253.119 338.795 254.982 340.102C255.676 340.612 256.474 340.991 257.331 341.215V341.215Z" fill="#FBBEBE"/>
<path id="Vector_41" opacity="0.1" d="M252.633 322.202C251.705 324.887 251.163 327.67 251.021 330.482C248.746 332.94 245.718 334.724 242.324 335.607C238.929 336.489 235.323 336.43 231.966 335.436C231.879 333.078 231.273 330.759 230.184 328.618L252.633 322.202Z" fill="black"/>
<path id="Vector_42" d="M255.203 319.587C255.203 322.784 254.162 325.909 252.211 328.567C250.261 331.226 247.488 333.297 244.245 334.521C241.001 335.744 237.432 336.064 233.988 335.441C230.545 334.817 227.382 333.277 224.899 331.017C222.416 328.756 220.726 325.876 220.041 322.741C219.356 319.605 219.707 316.355 221.051 313.401C222.394 310.448 224.67 307.923 227.589 306.147C230.508 304.371 233.94 303.423 237.451 303.423C239.784 303.418 242.095 303.832 244.252 304.643C246.408 305.453 248.367 306.644 250.017 308.146C251.666 309.648 252.974 311.432 253.864 313.395C254.754 315.359 255.209 317.463 255.203 319.587V319.587Z" fill="#FBBEBE"/>
<path id="Vector_43" opacity="0.1" d="M257.331 341.215L255.203 350.722L244.799 366.651L231.966 361.657C231.966 361.657 214.516 345.017 225.479 342.643C226.794 342.388 228.035 341.885 229.124 341.168C227.143 346.123 235.316 356.427 235.316 356.427C236.266 357.701 238.453 356.903 238.453 356.903C243.71 356.179 253.407 342.395 254.982 340.102C255.676 340.612 256.474 340.991 257.331 341.215V341.215Z" fill="black"/>
<path id="Vector_44" opacity="0.1" d="M267.381 433.393C264.289 434.063 247.192 437.475 240.713 436.617C233.578 435.665 219.7 435.035 219.7 435.035C219.7 435.035 210.864 435.464 208.155 434.365C208.155 434.063 208.155 433.895 208.155 433.895L213.191 428.405C213.191 428.405 261.925 425.052 265.577 428.405C266.535 429.196 267.05 431.053 267.381 433.393Z" fill="black"/>
<path id="Vector_45" d="M235.316 356.903C235.316 356.903 226.135 345.325 229.595 340.813L214.082 346.605C214.082 346.605 204.746 345.573 201.381 358.258C200.842 360.368 200.646 362.538 200.799 364.7C200.924 366.611 200.637 369.977 198.244 374.334C194.416 381.307 195.299 397.317 203.118 398.899C210.938 400.481 213.736 399.69 213.736 399.69C213.736 399.69 212.69 428.693 208.169 432.018C203.649 435.344 219.707 434.552 219.707 434.552C219.707 434.552 233.578 435.223 240.713 436.141C247.848 437.06 267.86 432.789 267.86 432.789C267.86 432.789 264.915 420.587 263.854 412.824C262.794 405.06 260.379 388.527 260.379 388.527L278.131 366.631C278.131 366.631 281.26 353.397 270.297 347.537C259.334 341.678 255.203 340.23 255.203 340.23C255.203 340.23 244.159 356.568 238.445 357.359C238.445 357.373 236.266 358.177 235.316 356.903Z" fill="#FF748E"/>
<path id="Vector_46" opacity="0.1" d="M214.95 361.502C214.95 361.502 214.781 366.732 215.827 368.79C216.872 370.848 220.693 382.259 220.693 382.259H211.998C211.998 382.259 216.695 377.666 216.349 375.447C216.003 373.228 214.95 361.502 214.95 361.502Z" fill="black"/>
<path id="Vector_47" d="M240.713 400.95C240.713 400.95 221.496 396.673 219.707 393.033C217.918 389.392 212.977 381.226 212.977 381.226L215.002 378.739L224.353 385.443C224.353 385.443 235.493 393.489 240.713 394.32C245.933 395.151 240.713 400.95 240.713 400.95Z" fill="#FBBEBE"/>
<path id="Vector_48" opacity="0.05" d="M240.713 400.95C240.713 400.95 221.496 396.673 219.707 393.033C217.918 389.392 212.977 381.226 212.977 381.226L215.002 378.739L224.353 385.443C224.353 385.443 235.493 393.489 240.713 394.32C245.933 395.151 240.713 400.95 240.713 400.95Z" fill="black"/>
<path id="Vector_49" d="M257.331 380.362V389.855H255.652C247.372 389.855 239.228 391.775 231.988 395.433L228.852 397.015L228.005 397.444L222.608 386.382L227.659 382.259H227.916C229.153 382.366 234.491 382.768 236.752 382.078C239.012 381.387 241.575 379.302 247.899 380.777C251.021 381.501 253.679 384.686 256.735 383.694L257.331 380.362Z" fill="#FBBEBE"/>
<path id="Vector_50" opacity="0.1" d="M274.126 363.085L277.608 366.651V375.286C277.608 375.286 274.663 402.546 265.253 405.556C255.844 408.567 239.079 403.813 239.079 403.813C239.079 403.813 234.742 393.354 236.767 392.718C238.791 392.081 254.688 388.266 254.688 388.266C254.688 388.266 254.459 372.276 257.942 367.523C257.942 367.523 255.682 352.626 263.508 352.311C271.335 351.996 274.126 363.085 274.126 363.085Z" fill="black"/>
<path id="Vector_51" d="M274.634 363.085L278.116 366.651V375.286C278.116 375.286 275.171 402.546 265.754 405.556C256.337 408.567 239.587 403.813 239.587 403.813C239.587 403.813 235.25 393.354 237.275 392.718C239.299 392.081 255.188 388.266 255.188 388.266C255.188 388.266 254.967 372.276 258.45 367.523C258.45 367.523 256.182 352.626 264.016 352.311C271.85 351.996 274.634 363.085 274.634 363.085Z" fill="#FF748E"/>
<path id="Vector_52" opacity="0.1" d="M250.336 326.452C250.491 325.41 250.354 324.349 249.939 323.368C249.721 322.883 249.332 322.478 248.833 322.216C248.335 321.954 247.755 321.85 247.185 321.92C245.712 322.235 245.05 323.999 243.592 324.421C242.362 324.776 241.015 323.985 240.426 322.939C239.933 321.849 239.726 320.669 239.822 319.493C239.822 318.152 239.822 316.845 239.822 315.518C239.822 314.076 239.771 312.521 238.791 311.388C237.576 309.98 234.727 309.376 232.827 309.423C231.56 309.435 230.343 309.88 229.418 310.67C228.954 311.096 228.391 311.422 227.771 311.624C227.15 311.825 226.488 311.898 225.833 311.837C225.255 311.756 224.714 311.528 224.272 311.179C223.831 310.831 223.506 310.375 223.337 309.866C223.333 309.848 223.333 309.83 223.337 309.812C224.816 308.031 226.685 306.549 228.824 305.458C230.964 304.368 233.329 303.693 235.77 303.476C238.21 303.259 240.674 303.504 243.005 304.197C245.336 304.891 247.484 306.016 249.314 307.503C251.144 308.989 252.615 310.805 253.636 312.836C254.657 314.866 255.204 317.067 255.244 319.299C255.284 321.532 254.816 323.748 253.868 325.808C252.921 327.867 251.515 329.726 249.74 331.266C250.034 329.672 250.233 328.065 250.336 326.452Z" fill="black"/>
<path id="Vector_53" d="M225.825 311.361C225.247 311.279 224.706 311.051 224.263 310.702C223.821 310.354 223.494 309.899 223.322 309.39C223.182 308.88 223.219 308.331 223.05 307.828C222.645 306.581 221.187 305.93 220.208 304.985C218.249 303.095 218.374 299.977 219.758 297.698C220.885 295.861 223.057 294.312 225.332 294.667C226.738 294.895 227.953 295.807 229.382 295.887C230.81 295.968 232.01 295.271 233.262 294.748C236.278 293.504 239.668 293.229 242.878 293.97C243.866 294.149 244.782 294.568 245.528 295.183C246.035 295.763 246.507 296.367 246.942 296.994C248.562 298.878 251.47 299.246 254.054 299.675C256.639 300.104 259.569 301.016 260.416 303.302C260.983 304.804 260.416 306.433 260.114 307.995C260.002 308.316 260.025 308.662 260.18 308.967C260.585 309.578 261.594 309.323 262.389 309.464C263.862 309.745 264.23 311.475 264.281 312.816C264.35 314.371 264.397 315.936 264.421 317.509C264.465 318.091 264.415 318.676 264.274 319.245C263.956 320.057 263.455 320.8 262.802 321.424L257.051 327.713C254.504 330.502 251.801 333.747 252.309 337.347C251.102 337.836 249.674 336.891 249.276 335.738C248.878 334.585 249.195 333.351 249.467 332.171C249.931 330.131 250.233 328.063 250.373 325.983C250.528 324.939 250.392 323.876 249.975 322.892C249.756 322.407 249.366 322.001 248.866 321.739C248.367 321.477 247.786 321.374 247.214 321.444C245.742 321.759 245.087 323.523 243.629 323.945C242.399 324.307 241.052 323.509 240.463 322.463C239.973 321.372 239.766 320.193 239.859 319.017V315.042C239.859 313.6 239.807 312.045 238.828 310.912C237.621 309.504 234.764 308.9 232.864 308.947C231.596 308.959 230.38 309.404 229.455 310.194C228.986 310.626 228.416 310.955 227.787 311.157C227.159 311.359 226.488 311.428 225.825 311.361V311.361Z" fill="#7C5C5C"/>
<path id="Vector_54" opacity="0.1" d="M229.831 361.107L235.287 381.488C235.287 381.488 239.579 381.468 229.831 361.107Z" fill="black"/>
<path id="Vector_55" opacity="0.1" d="M248.459 357.694C248.459 357.694 241.317 368.341 244.107 379.343L245.433 379.43C245.433 379.43 243.062 374.334 248.459 357.694Z" fill="black"/>
<path id="Vector_56" opacity="0.1" d="M252.98 417.919C252.98 417.919 261.741 415.278 262.382 421.405C262.382 421.405 260.725 417.202 252.98 417.919Z" fill="black"/>
<path id="Vector_57" opacity="0.1" d="M227.659 382.735C227.659 382.735 225.921 393.831 229.05 398.269C224.14 399.844 218.929 400.489 213.736 400.166L212.69 382.735H227.659Z" fill="black"/>
<path id="Vector_58" opacity="0.1" d="M228.852 397.015L228.005 397.444L222.608 386.382L227.659 382.259H227.916C227.835 382.795 226.429 392.322 228.852 397.015Z" fill="black"/>
<path id="Vector_59" d="M227.659 382.259C227.659 382.259 225.921 393.354 229.05 397.793C224.14 399.368 218.929 400.013 213.736 399.69L207.647 382.259H227.659Z" fill="#FF748E"/>
<path id="Vector_60" d="M212.602 567.344C212.502 568.135 212.115 568.873 211.503 569.441C210.891 570.009 210.088 570.375 209.222 570.482C204.503 571.152 193.112 572.761 190.241 574.008C186.559 575.597 172.143 574.484 171.444 572.902C171.345 572.584 171.317 572.252 171.36 571.924C171.403 571.596 171.516 571.279 171.694 570.992C172.031 570.361 172.503 569.798 173.084 569.338C173.665 568.877 174.341 568.527 175.073 568.31C177.798 567.479 182.937 565.729 184.321 563.892C184.321 563.892 190.727 558.783 192.553 556.028C192.896 555.484 193.381 555.026 193.966 554.695C194.55 554.364 195.216 554.17 195.903 554.13C197.427 554.063 199.12 554.767 199.82 557.804C199.82 557.804 208.169 562.142 210.43 558.341C210.43 558.341 210.776 564.18 212.16 565.782C212.343 566.003 212.477 566.255 212.552 566.523C212.628 566.791 212.645 567.07 212.602 567.344Z" fill="#A27772"/>
<path id="Vector_61" opacity="0.1" d="M212.602 567.344C212.502 568.135 212.115 568.873 211.503 569.441C210.891 570.009 210.088 570.376 209.222 570.482C204.503 571.152 193.112 572.762 190.241 574.009C186.559 575.597 172.143 574.485 171.444 572.902C171.345 572.584 171.317 572.252 171.36 571.924C171.403 571.596 171.516 571.28 171.694 570.992C172.19 570.028 173.007 569.23 174.028 568.712C176.384 570.133 181.612 571.528 193.112 569.892C204.083 568.33 209.509 566.801 212.16 565.762C212.346 565.986 212.481 566.241 212.557 566.513C212.633 566.784 212.648 567.067 212.602 567.344V567.344Z" fill="black"/>
<g id="Group" opacity="0.1">
<path id="Vector_62" opacity="0.1" d="M260.092 308.21C260.096 308.183 260.096 308.156 260.092 308.129C260.436 306.957 260.617 305.75 260.63 304.536C260.519 305.506 260.339 306.469 260.092 307.419C260.026 307.679 260.026 307.95 260.092 308.21V308.21Z" fill="black"/>
<path id="Vector_63" opacity="0.1" d="M249.939 323.04C250.212 323.611 250.357 324.227 250.366 324.85C250.445 323.991 250.299 323.127 249.939 322.329C249.719 321.843 249.33 321.437 248.83 321.174C248.331 320.911 247.75 320.805 247.178 320.874C245.705 321.189 245.05 322.959 243.592 323.382C242.362 323.737 241.015 322.939 240.426 321.893C239.929 320.804 239.723 319.623 239.822 318.447C239.822 317.107 239.822 315.799 239.822 314.478C239.822 313.037 239.771 311.482 238.791 310.349C237.576 308.934 234.727 308.337 232.82 308.378C231.553 308.39 230.338 308.838 229.418 309.631C228.953 310.056 228.39 310.38 227.77 310.581C227.149 310.781 226.488 310.853 225.833 310.791C225.253 310.713 224.71 310.486 224.266 310.137C223.823 309.788 223.498 309.331 223.329 308.82C223.182 308.31 223.226 307.767 223.057 307.258C222.652 306.011 221.194 305.367 220.215 304.422C219.301 303.5 218.779 302.311 218.742 301.07C218.672 301.803 218.767 302.541 219.02 303.239C219.273 303.937 219.68 304.582 220.215 305.133C221.194 306.078 222.652 306.728 223.057 307.975C223.226 308.478 223.182 309.028 223.329 309.537C223.501 310.047 223.827 310.502 224.27 310.851C224.713 311.199 225.254 311.427 225.833 311.508C226.488 311.57 227.15 311.497 227.771 311.295C228.391 311.093 228.954 310.768 229.418 310.342C230.343 309.561 231.552 309.119 232.813 309.102C234.72 309.048 237.569 309.665 238.784 311.073C239.763 312.206 239.807 313.754 239.815 315.203C239.815 316.543 239.815 317.851 239.815 319.171C239.715 320.35 239.921 321.533 240.419 322.624C241.008 323.67 242.355 324.461 243.585 324.106C245.057 323.683 245.683 321.92 247.17 321.598C247.741 321.529 248.322 321.633 248.822 321.893C249.322 322.154 249.715 322.557 249.939 323.04V323.04Z" fill="black"/>
<path id="Vector_64" opacity="0.1" d="M264.245 318.675C263.925 319.489 263.424 320.233 262.772 320.861C260.848 322.953 258.931 325.047 257.022 327.143C254.607 329.791 252.044 332.855 252.229 336.234C252.405 333.136 254.776 330.321 257.022 327.86L262.772 321.572C263.424 320.946 263.925 320.204 264.245 319.393C264.386 318.821 264.436 318.234 264.392 317.65C264.388 317.996 264.338 318.34 264.245 318.675V318.675Z" fill="black"/>
<path id="Vector_65" opacity="0.1" d="M249.239 335.175C249.144 334.898 249.085 334.612 249.062 334.323C249.014 334.849 249.074 335.379 249.239 335.885C249.629 337.038 251.065 337.984 252.273 337.494C252.273 337.26 252.221 337.025 252.214 336.824C251.021 337.26 249.6 336.301 249.239 335.175Z" fill="black"/>
</g>
<path id="Vector_66" opacity="0.1" d="M191.434 557.442C191.434 557.442 193.252 560.352 199.849 557.784Z" fill="black"/>
<path id="Vector_67" opacity="0.1" d="M247.133 558.139C247.133 558.139 252.825 564.234 259.989 560.151Z" fill="black"/>
<path id="Vector_68" opacity="0.1" d="M263.685 486.055C263.685 486.055 259.665 488.341 259.532 489.648C259.4 490.956 261.609 488.696 261.609 488.696L263.685 486.055Z" fill="black"/>
<path id="Vector_69" opacity="0.1" d="M265.268 503.58C263.873 504.641 262.136 505.257 260.32 505.336C257.316 505.457 257.567 509.024 259.532 507.951C261.498 506.878 265.268 503.58 265.268 503.58Z" fill="black"/>
<path id="Vector_70" opacity="0.1" d="M266.034 505.866C266.034 505.866 264.105 514.488 262.536 512.825Z" fill="black"/>
<g id="Group_2" opacity="0.5">
<path id="Vector_71" opacity="0.5" d="M395.509 307.493H346.915V316.879H395.509V307.493Z" fill="#DCE0ED"/>
<path id="Vector_72" opacity="0.5" d="M507.093 307.493H458.498V316.879H507.093V307.493Z" fill="#DCE0ED"/>
<path id="Vector_73" opacity="0.5" d="M618.677 307.493H570.082V316.879H618.677V307.493Z" fill="#DCE0ED"/>
</g>
<path id="Vector_74" opacity="0.1" d="M701.479 540.259C712.43 540.259 721.307 538.893 721.307 537.209C721.307 535.524 712.43 534.158 701.479 534.158C690.528 534.158 681.651 535.524 681.651 537.209C681.651 538.893 690.528 540.259 701.479 540.259Z" fill="#6C63FF"/>
<path id="Vector_75" opacity="0.1" d="M84.8346 578.775C95.7853 578.775 104.663 577.409 104.663 575.725C104.663 574.04 95.7853 572.674 84.8346 572.674C73.8838 572.674 65.0065 574.04 65.0065 575.725C65.0065 577.409 73.8838 578.775 84.8346 578.775Z" fill="#6C63FF"/>
<path id="Vector_76" d="M658.083 574.458C674.433 574.458 687.689 572.417 687.689 569.899C687.689 567.381 674.433 565.34 658.083 565.34C641.732 565.34 628.477 567.381 628.477 569.899C628.477 572.417 641.732 574.458 658.083 574.458Z" fill="#6C63FF"/>
<path id="Vector_77" d="M670.32 562.45C671.671 561.448 672.655 560.093 673.14 558.568C673.508 557.026 672.786 555.183 671.174 554.62C669.362 553.989 667.426 555.129 665.953 556.289C664.481 557.449 662.809 558.756 660.888 558.515C661.874 557.699 662.612 556.664 663.03 555.512C663.448 554.36 663.532 553.128 663.273 551.938C663.191 551.444 662.962 550.981 662.611 550.597C661.602 549.618 659.783 550.034 658.576 550.805C654.747 553.259 653.68 557.992 653.657 562.256C653.275 560.721 653.599 559.118 653.591 557.563C653.584 556.007 653.105 554.211 651.647 553.386C650.743 552.946 649.727 552.729 648.702 552.756C646.979 552.695 645.058 552.85 643.887 553.996C642.414 555.424 642.805 557.811 644.071 559.36C645.337 560.908 647.281 561.907 649.056 562.993C650.482 563.769 651.699 564.825 652.619 566.084C652.724 566.262 652.81 566.448 652.877 566.64H663.671C666.083 565.521 668.319 564.111 670.32 562.45Z" fill="#6C63FF"/>
<path id="Vector_78" d="M85.7402 530.471C85.7402 530.471 89.7897 535.291 83.8774 542.539C77.965 549.786 73.0908 555.947 75.042 560.486C75.042 560.486 83.9657 546.977 91.2402 546.789C98.5147 546.601 93.7288 538.596 85.7402 530.471Z" fill="#6C63FF"/>
<path id="Vector_79" opacity="0.1" d="M85.7402 530.471C86.0944 530.938 86.3745 531.448 86.5722 531.986C93.6552 539.562 97.425 546.635 90.6144 546.809C84.275 546.977 76.6692 557.301 74.8432 559.909C74.9032 560.111 74.9745 560.311 75.0567 560.506C75.0567 560.506 83.9804 546.997 91.2549 546.809C98.5294 546.621 93.7288 538.596 85.7402 530.471Z" fill="black"/>
<path id="Vector_80" d="M93.2576 536.612C93.2576 538.308 93.0515 539.682 92.7938 539.682C92.5361 539.682 92.3299 538.342 92.3299 536.612C92.3299 534.882 92.5876 535.714 92.8453 535.714C93.103 535.714 93.2576 534.916 93.2576 536.612Z" fill="#FFD037"/>
<path id="Vector_81" d="M95.842 538.637C94.2074 539.448 92.779 539.937 92.6612 539.729C92.5434 539.522 93.7583 538.697 95.3928 537.886C97.0274 537.074 96.3868 537.664 96.5046 537.886C96.6224 538.107 97.4765 537.825 95.842 538.637Z" fill="#FFD037"/>
<path id="Vector_82" d="M64.3806 530.471C64.3806 530.471 60.331 535.291 66.2434 542.539C72.1557 549.786 77.0299 555.947 75.0788 560.486C75.0788 560.486 66.1624 546.977 58.8806 546.789C51.5987 546.601 56.3919 538.596 64.3806 530.471Z" fill="#6C63FF"/>
<path id="Vector_83" opacity="0.1" d="M64.3806 530.471C64.0264 530.938 63.7463 531.448 63.5486 531.986C56.4655 539.562 52.6958 546.635 59.5064 546.809C65.8458 546.977 73.4516 557.301 75.2776 559.909C75.2184 560.112 75.1446 560.312 75.0567 560.506C75.0567 560.506 66.1403 546.997 58.8585 546.809C51.5766 546.621 56.3919 538.596 64.3806 530.471Z" fill="black"/>
<path id="Vector_84" d="M56.8558 536.612C56.8558 538.308 57.0693 539.682 57.327 539.682C57.5847 539.682 57.7909 538.342 57.7909 536.612C57.7909 534.882 57.5332 535.714 57.2755 535.714C57.0178 535.714 56.8558 534.916 56.8558 536.612Z" fill="#FFD037"/>
<path id="Vector_85" d="M54.2788 538.637C55.9133 539.448 57.3344 539.937 57.4595 539.729C57.5847 539.522 56.3625 538.697 54.7279 537.886C53.0934 537.074 53.7339 537.664 53.6088 537.886C53.4836 538.107 52.6443 537.825 54.2788 538.637Z" fill="#FFD037"/>
<path id="Vector_86" d="M58.1664 559.876C58.1664 559.876 69.4757 559.554 72.892 557.348C76.3084 555.143 90.2904 552.494 91.1371 556.041C91.9839 559.588 108.131 573.667 95.3634 573.76C82.5963 573.854 65.6986 571.95 62.2969 570.066C58.8953 568.182 58.1664 559.876 58.1664 559.876Z" fill="#A8A8A8"/>
<path id="Vector_87" opacity="0.2" d="M95.5622 572.527C82.795 572.621 65.89 570.717 62.4884 568.833C59.904 567.391 58.8658 562.236 58.5272 559.862H58.1443C58.1443 559.862 58.8806 568.162 62.2675 570.053C65.6544 571.944 82.5668 573.841 95.3339 573.747C99.0154 573.747 100.289 572.527 100.223 570.757C99.7075 571.843 98.3012 572.507 95.5622 572.527Z" fill="black"/>
<g id="Circle3">
<path id="Vector_88" opacity="0.5" d="M596.15 348.65C610.92 348.65 622.265 360.542 622.265 375.166C622.265 375.23 622.265 375.301 622.265 375.373H628.986C628.986 375.301 628.986 375.23 628.986 375.166C628.986 356.881 614.627 342 596.15 342C591.37 341.999 586.645 343.012 582.294 344.972C577.943 346.933 574.069 349.794 570.931 353.363L575.693 358.075C578.202 355.123 581.334 352.75 584.867 351.122C588.401 349.494 592.252 348.651 596.15 348.65V348.65Z" fill="#6C63FF"/>
<path id="Vector_89" d="M628.978 376.038H622.258C622.229 380.296 621.164 384.485 619.153 388.25C617.142 392.015 614.244 395.245 610.704 397.666C607.164 400.088 603.086 401.63 598.817 402.162C594.547 402.694 590.211 402.2 586.175 400.722C582.139 399.244 578.522 396.825 575.631 393.671C572.74 390.517 570.659 386.72 569.565 382.602C568.47 378.483 568.395 374.164 569.345 370.011C570.294 365.857 572.241 361.991 575.021 358.74L570.281 354.028C566.722 358.055 564.201 362.875 562.934 368.076C561.666 373.277 561.689 378.704 563.001 383.894C564.313 389.084 566.875 393.883 570.468 397.88C574.061 401.878 578.578 404.955 583.634 406.851C588.689 408.746 594.133 409.402 599.501 408.763C604.869 408.124 610 406.209 614.457 403.182C618.915 400.154 622.566 396.104 625.098 391.377C627.63 386.651 628.969 381.388 629 376.038H628.978Z" fill="#6C63FF"/>
</g>
<g id="Circle1">
<g id="Circle1_2">
<path id="Vector_90" opacity="0.5" d="M495.394 344.564L494.057 351.217C503.892 355.162 510.179 364.748 510.179 375.921C510.18 380.723 508.876 385.435 506.405 389.56C503.934 393.686 500.388 397.07 496.141 399.355C491.894 401.64 487.105 402.742 482.281 402.542C477.456 402.343 472.776 400.851 468.734 398.224C464.692 395.596 461.44 391.931 459.321 387.617C457.202 383.302 456.296 378.498 456.698 373.713C457.099 368.928 458.794 364.34 461.603 360.435C464.412 356.529 468.23 353.451 472.654 351.526L469.677 345.527C464.185 347.985 459.461 351.87 456.003 356.773C452.544 361.676 450.478 367.415 450.024 373.386C449.569 379.358 450.741 385.341 453.418 390.706C456.094 396.071 460.176 400.619 465.232 403.872C470.289 407.125 476.134 408.962 482.153 409.19C488.171 409.418 494.14 408.028 499.431 405.168C504.722 402.307 509.139 398.081 512.218 392.934C515.298 387.787 516.925 381.91 516.928 375.921C516.928 361.5 508.343 349.198 495.394 344.564Z" fill="#6C63FF"/>
</g>
<path id="Vector_91" d="M484.259 348.897C487.468 348.895 490.644 349.551 493.588 350.822L494.925 344.176C491.521 342.873 487.905 342.208 484.259 342.214C479.525 342.214 474.844 343.216 470.529 345.153L473.535 351.138C476.914 349.657 480.566 348.893 484.259 348.897V348.897Z" fill="#6C63FF"/>
</g>
<g id="Circle2">
<path id="Vector_92" d="M344.652 374.832C344.652 360.063 356.546 348.72 371.173 348.72H371.38V342H371.173C352.877 342 338 356.357 338 374.832C337.999 379.612 339.014 384.336 340.974 388.686C342.935 393.036 345.796 396.911 349.365 400.048L354.078 395.287C351.126 392.778 348.753 389.647 347.124 386.113C345.496 382.58 344.652 378.73 344.652 374.832V374.832Z" fill="#6C63FF"/>
<path id="Vector_93" opacity="0.5" d="M372.045 342.007V348.727C376.305 348.755 380.494 349.82 384.26 351.831C388.026 353.842 391.256 356.74 393.678 360.28C396.1 363.819 397.643 367.896 398.175 372.165C398.706 376.435 398.212 380.77 396.734 384.806C395.256 388.841 392.837 392.458 389.682 395.349C386.527 398.24 382.73 400.32 378.61 401.414C374.491 402.508 370.171 402.584 366.017 401.634C361.862 400.685 357.995 398.738 354.744 395.959L350.016 400.72C354.044 404.278 358.865 406.799 364.067 408.066C369.269 409.334 374.697 409.31 379.888 407.999C385.08 406.687 389.879 404.125 393.878 400.533C397.876 396.94 400.955 392.424 402.85 387.369C404.745 382.313 405.402 376.87 404.763 371.503C404.124 366.136 402.208 361.005 399.18 356.548C396.152 352.091 392.101 348.441 387.374 345.909C382.646 343.377 377.382 342.038 372.031 342.007H372.045Z" fill="#6C63FF"/>
</g>
</g>
<defs>
<linearGradient id="paint0_linear" x1="224.935" y1="575.725" x2="224.935" y2="292.589" gradientUnits="userSpaceOnUse">
<stop stop-color="#808080" stop-opacity="0.25"/>
<stop offset="0.54" stop-color="#808080" stop-opacity="0.12"/>
<stop offset="1" stop-color="#808080" stop-opacity="0.1"/>
</linearGradient>
</defs>
</svg>
